<mxfile host="app.diagrams.net" modified="2023-07-16T08:57:29.583Z" agent="Mozilla/5.0 (X11; CrOS x86_64 14541.0.0) AppleWebKit/537.36 (KHTML, like Gecko) Chrome/114.0.0.0 Safari/537.36" version="21.6.1" etag="EfA7psVd7zXXu-MzPxzK" type="github">
  <diagram name="ページ1" id="oJVAixYYr-kagkucqeUQ">
    <mxGraphModel>
      <root>
        <mxCell id="0" />
        <mxCell id="1" parent="0" />
      </root>
    </mxGraphModel>
  </diagram>
</mxfile>
